<?xml version="1.0" standalone="no"?>
<!DOCTYPE svg PUBLIC "-//W3C//DTD SVG 20010904//EN"
 "http://www.w3.org/TR/2001/REC-SVG-20010904/DTD/svg10.dtd">
<svg version="1.0" xmlns="http://www.w3.org/2000/svg"
 width="1102.000000pt" height="612.000000pt" viewBox="0 0 1102.000000 612.000000"
 preserveAspectRatio="xMidYMid meet">
<metadata>
Created by potrace 1.12, written by Peter Selinger 2001-2015
</metadata>
<g transform="translate(0.000000,612.000000) scale(0.100000,-0.100000)"
fill="#000000" stroke="none">
<path d="M3570 3045 l0 -905 -710 0 c-624 0 -710 -2 -710 -15 0 -13 87 -15
725 -15 l725 0 0 920 c0 811 -2 920 -15 920 -13 0 -15 -107 -15 -905z"/>
<path d="M7800 2950 l0 -840 1380 0 c1220 0 1380 2 1380 15 0 13 -158 15
-1360 15 l-1360 0 0 825 c0 818 0 825 -20 825 -20 0 -20 -7 -20 -840z"/>
<path d="M4180 2640 l0 -530 1555 0 1555 0 0 520 c0 513 0 520 -20 520 -20 0
-20 -7 -20 -505 l0 -505 -1520 0 -1520 0 0 515 c0 451 -2 515 -15 515 -13 0
-15 -66 -15 -530z"/>
</g>
</svg>
