<?xml version="1.0" standalone="no"?>
<!DOCTYPE svg PUBLIC "-//W3C//DTD SVG 20010904//EN"
 "http://www.w3.org/TR/2001/REC-SVG-20010904/DTD/svg10.dtd">
<svg version="1.0" xmlns="http://www.w3.org/2000/svg"
 width="1102.000000pt" height="612.000000pt" viewBox="0 0 1102.000000 612.000000"
 preserveAspectRatio="xMidYMid meet">
<metadata>
Created by potrace 1.12, written by Peter Selinger 2001-2015
</metadata>
<g transform="translate(0.000000,612.000000) scale(0.100000,-0.100000)"
fill="#000000" stroke="none">
<path d="M3570 4645 c0 -602 2 -685 15 -685 13 0 15 81 15 670 l0 670 720 0
720 0 0 -170 0 -170 40 0 40 0 0 -495 0 -495 -455 0 c-297 0 -455 -3 -455 -10
0 -7 162 -10 465 -10 l465 0 0 515 0 515 -40 0 -40 0 0 160 0 160 665 0 665 0
0 -160 0 -160 -45 0 -45 0 0 -580 0 -580 475 0 c468 0 475 0 475 20 0 20 -7
20 -455 20 l-455 0 0 540 0 540 45 0 45 0 0 180 0 180 710 0 710 0 0 -55 c0
-52 -1 -55 -25 -55 l-25 0 0 -700 c0 -693 0 -700 20 -700 20 0 20 7 20 685 0
678 0 685 20 685 18 0 20 7 20 85 l0 85 -2155 0 -2155 0 0 -685z"/>
<path d="M740 2125 c0 -13 84 -15 700 -15 616 0 700 2 700 15 0 13 -84 15
-700 15 -616 0 -700 -2 -700 -15z"/>
</g>
</svg>
