<?xml version="1.0" standalone="no"?>
<!DOCTYPE svg PUBLIC "-//W3C//DTD SVG 20010904//EN"
 "http://www.w3.org/TR/2001/REC-SVG-20010904/DTD/svg10.dtd">
<svg version="1.0" xmlns="http://www.w3.org/2000/svg"
 width="1102.000000pt" height="612.000000pt" viewBox="0 0 1102.000000 612.000000"
 preserveAspectRatio="xMidYMid meet">
<metadata>
Created by potrace 1.12, written by Peter Selinger 2001-2015
</metadata>
<g transform="translate(0.000000,612.000000) scale(0.100000,-0.100000)"
fill="#000000" stroke="none">
<path d="M3570 5255 l0 -75 295 0 295 0 0 -340 0 -340 25 0 25 0 0 340 0 340
395 0 395 0 0 -541 0 -541 -470 4 -470 4 0 -78 0 -78 540 0 540 0 0 515 0 515
-40 0 -40 0 0 175 0 175 -745 0 -745 0 0 -75z"/>
<path d="M6400 5145 l0 -165 -50 0 -50 0 0 -580 0 -580 520 0 520 0 0 80 0 80
-130 0 -130 0 0 25 c0 21 -5 25 -30 25 -25 0 -30 -4 -30 -25 l0 -25 -280 0
-280 0 0 595 0 595 280 0 280 0 0 -360 0 -360 30 0 30 0 0 355 0 355 400 0
400 0 0 75 0 75 -740 0 -740 0 0 -165z"/>
<path d="M3520 4000 l0 -70 65 0 65 0 0 70 0 70 -65 0 -65 0 0 -70z"/>
<path d="M7760 4000 l0 -70 65 0 65 0 0 70 0 70 -65 0 -65 0 0 -70z"/>
<path d="M3520 3160 l0 -70 65 0 65 0 0 70 0 70 -65 0 -65 0 0 -70z"/>
<path d="M7760 2750 l0 -70 65 0 65 0 0 70 0 70 -65 0 -65 0 0 -70z"/>
<path d="M3520 2690 l0 -70 65 0 65 0 0 70 0 70 -65 0 -65 0 0 -70z"/>
</g>
</svg>
