<?xml version="1.0" standalone="no"?>
<!DOCTYPE svg PUBLIC "-//W3C//DTD SVG 20010904//EN"
 "http://www.w3.org/TR/2001/REC-SVG-20010904/DTD/svg10.dtd">
<svg version="1.0" xmlns="http://www.w3.org/2000/svg"
 width="1102.000000pt" height="612.000000pt" viewBox="0 0 1102.000000 612.000000"
 preserveAspectRatio="xMidYMid meet">
<metadata>
Created by potrace 1.12, written by Peter Selinger 2001-2015
</metadata>
<g transform="translate(0.000000,612.000000) scale(0.100000,-0.100000)"
fill="#000000" stroke="none">
<path d="M3570 3710 l0 -1570 -1350 0 -1350 0 0 -340 0 -340 4845 0 4845 0 0
340 0 340 -1360 0 -1360 0 0 1550 0 1550 -685 0 -685 0 0 -160 0 -160 -60 0
-60 0 0 -515 0 -515 450 0 450 0 0 -875 0 -875 -1520 0 -1520 0 0 940 0 940
440 0 440 0 0 460 0 460 -45 0 -45 0 0 170 0 170 -715 0 -715 0 0 -1570z"/>
</g>
</svg>
