<?xml version="1.0" standalone="no"?>
<!DOCTYPE svg PUBLIC "-//W3C//DTD SVG 20010904//EN"
 "http://www.w3.org/TR/2001/REC-SVG-20010904/DTD/svg10.dtd">
<svg version="1.0" xmlns="http://www.w3.org/2000/svg"
 width="1102.000000pt" height="612.000000pt" viewBox="0 0 1102.000000 612.000000"
 preserveAspectRatio="xMidYMid meet">
<metadata>
Created by potrace 1.12, written by Peter Selinger 2001-2015
</metadata>
<g transform="translate(0.000000,612.000000) scale(0.100000,-0.100000)"
fill="#000000" stroke="none">
<path d="M690 3715 l0 -1615 25 0 25 0 0 1595 0 1595 1405 0 c1398 0 1405 0
1405 20 0 20 -7 20 -1430 20 l-1430 0 0 -1615z"/>
<path d="M7890 5295 c0 -13 154 -15 1330 -15 1176 0 1330 2 1330 15 0 13 -154
15 -1330 15 -1176 0 -1330 -2 -1330 -15z"/>
<path d="M10560 3390 l0 -1920 -2075 0 -2075 0 0 -75 0 -75 2150 0 2150 0 0
1995 0 1995 -75 0 -75 0 0 -1920z"/>
<path d="M9190 4000 l0 -70 65 0 65 0 0 70 0 70 -65 0 -65 0 0 -70z"/>
<path d="M2080 3985 l0 -75 75 0 75 0 0 75 0 75 -75 0 -75 0 0 -75z"/>
<path d="M9190 2750 l0 -70 65 0 65 0 0 70 0 70 -65 0 -65 0 0 -70z"/>
<path d="M2070 2690 l0 -70 80 0 80 0 0 70 0 70 -80 0 -80 0 0 -70z"/>
<path d="M680 1395 l0 -75 2170 0 2170 0 0 75 0 75 -2170 0 -2170 0 0 -75z"/>
<path d="M5030 1335 c0 -13 83 -15 685 -15 602 0 685 2 685 15 0 13 -83 15
-685 15 -602 0 -685 -2 -685 -15z"/>
</g>
</svg>
